<?xml version="1.0" standalone="no"?>
<!DOCTYPE svg PUBLIC "-//W3C//DTD SVG 20010904//EN"
 "http://www.w3.org/TR/2001/REC-SVG-20010904/DTD/svg10.dtd">
<svg version="1.0" xmlns="http://www.w3.org/2000/svg"
 width="376.000000pt" height="376.000000pt" viewBox="0 0 376.000000 376.000000"
 preserveAspectRatio="xMidYMid meet">
<metadata>
Created by potrace 1.14, written by Peter Selinger 2001-2017
</metadata>
<g transform="translate(0.000000,376.000000) scale(0.100000,-0.100000)"
fill="#000000" stroke="none">
<path d="M1815 3688 c-27 -5 -54 -16 -58 -24 -4 -8 -15 -14 -23 -14 -19 0 -31
-34 -51 -138 -16 -81 -16 -83 5 -111 12 -16 24 -41 28 -55 3 -14 10 -28 14
-31 10 -6 1 -45 -11 -45 -5 0 -1 -9 9 -20 15 -18 49 -42 140 -97 21 -13 21
-16 8 -41 -8 -15 -23 -36 -35 -46 -18 -16 -23 -17 -37 -5 -16 13 -16 12 -3 -8
l13 -22 22 20 21 20 16 -43 c21 -59 31 -321 11 -293 -41 55 -146 376 -129 393
2 3 -4 17 -14 31 -10 14 -22 36 -25 49 -9 27 -18 28 -34 1 -15 -23 -86 -57
-185 -88 -110 -34 -144 -91 -199 -341 -56 -256 -68 -333 -57 -379 22 -99 235
-457 265 -447 14 5 30 -188 27 -345 -1 -118 -25 -354 -43 -436 -51 -225 -102
-833 -71 -833 9 0 11 -14 6 -53 -6 -48 -4 -55 22 -84 15 -17 37 -46 48 -64 28
-47 88 -79 151 -79 60 0 80 16 70 56 -4 15 -21 40 -37 57 -17 17 -35 41 -40
54 -14 37 -11 95 6 113 13 14 17 66 25 276 9 268 29 422 70 524 27 70 76 209
95 273 10 31 19 56 20 55 2 -2 -1 -41 -6 -88 -30 -270 -50 -863 -30 -883 6 -6
11 -39 11 -73 0 -71 3 -74 105 -74 33 0 89 -9 123 -20 71 -22 181 -27 200 -8
7 7 12 24 12 39 0 25 -8 30 -96 64 -106 41 -128 59 -130 107 -1 18 -7 77 -14
132 -11 91 -10 115 15 300 14 110 30 219 35 241 6 22 38 153 71 290 34 138 67
286 73 329 9 67 14 81 34 89 21 10 23 15 17 56 -3 25 -10 123 -15 216 -4 94
-13 188 -19 210 -6 22 -15 149 -21 282 -9 238 -16 316 -30 341 -3 7 -49 35
-101 61 -74 37 -100 56 -122 89 l-28 42 21 36 c22 35 34 101 47 252 7 84 -9
126 -63 167 -40 31 -67 35 -129 23z m149 -534 c3 -9 7 -34 7 -57 1 -24 4 -32
6 -19 7 35 64 -91 92 -202 19 -75 22 -103 16 -178 -4 -49 -9 -87 -12 -85 -2 3
-13 38 -23 79 -10 40 -33 125 -51 188 -17 63 -33 129 -34 146 -2 18 -14 49
-28 69 -24 35 -24 38 -9 55 21 23 28 24 36 4z m-424 -798 c7 -75 11 -138 8
-141 -3 -3 -23 45 -46 105 l-42 111 27 56 c25 50 28 53 34 31 3 -14 12 -86 19
-162z m502 -238 c5 -46 4 -48 -19 -48 -27 0 -27 11 -3 76 13 34 16 30 22 -28z"/>
<path d="M1975 3041 c-3 -5 -1 -12 5 -16 5 -3 10 1 10 9 0 18 -6 21 -15 7z"/>
<path d="M1770 3100 c6 -11 13 -20 16 -20 2 0 0 9 -6 20 -6 11 -13 20 -16 20
-2 0 0 -9 6 -20z"/>
</g>
</svg>
