<?xml version="1.0" standalone="no"?>
<!DOCTYPE svg PUBLIC "-//W3C//DTD SVG 20010904//EN"
 "http://www.w3.org/TR/2001/REC-SVG-20010904/DTD/svg10.dtd">
<svg version="1.0" xmlns="http://www.w3.org/2000/svg"
 width="580.000000pt" height="580.000000pt" viewBox="0 0 580.000000 580.000000"
 preserveAspectRatio="xMidYMid meet">
<metadata>
Created by potrace 1.14, written by Peter Selinger 2001-2017
</metadata>
<g transform="translate(0.000000,580.000000) scale(0.100000,-0.100000)"
fill="#000000" stroke="none">
<path d="M0 2900 l0 -2900 1389 0 c1198 0 1390 2 1394 14 3 8 2 16 -3 18 -6 2
-17 30 -25 63 -9 33 -23 70 -31 82 -7 12 -14 32 -14 43 0 11 -7 23 -15 26 -8
3 -24 22 -36 42 -42 73 -124 164 -206 228 -46 37 -88 75 -93 85 -6 10 -18 17
-28 16 -9 0 -68 27 -131 61 -63 34 -118 62 -122 62 -4 0 -41 16 -83 36 -43 20
-112 47 -154 59 -79 23 -259 87 -417 148 -225 86 -343 163 -520 335 -64 62
-80 74 -55 42 57 -76 55 -78 -13 -9 -174 178 -259 383 -243 588 3 47 12 109
19 136 16 57 67 169 74 162 2 -3 -4 -20 -14 -39 -15 -28 -18 -56 -18 -178 0
-124 4 -156 24 -220 49 -157 131 -280 285 -429 93 -90 146 -125 301 -201 185
-90 218 -104 400 -170 159 -58 317 -130 361 -166 18 -15 18 -15 -3 -5 -32 16
-42 13 -13 -3 14 -8 28 -12 32 -10 4 3 55 -23 113 -56 58 -34 136 -75 173 -93
152 -70 315 -203 415 -339 31 -43 33 -50 11 -41 -10 3 6 -26 34 -67 29 -40 49
-76 46 -81 -2 -5 3 -23 12 -40 13 -25 18 -29 26 -18 8 11 9 10 4 -4 -3 -11 2
-32 11 -48 l17 -29 163 0 c90 0 163 4 163 9 0 5 20 31 45 59 61 68 118 91 312
126 l31 5 -23 -25 c-34 -37 -38 -91 -9 -136 33 -51 70 -52 113 -3 25 29 31 44
31 83 0 27 -5 53 -12 60 -9 9 1 12 48 12 92 -1 168 -43 246 -138 l42 -52 873
0 873 0 0 85 c0 52 -4 85 -10 85 -14 0 -60 46 -60 59 0 14 -32 51 -39 46 -3
-1 -7 9 -8 23 -1 24 -18 44 -47 56 -7 3 -6 8 4 15 13 9 12 11 -3 11 -11 0 -15
4 -11 12 5 8 2 9 -9 5 -10 -3 -17 -2 -17 3 0 6 5 10 10 10 6 0 10 4 10 10 0 5
-7 7 -15 4 -11 -5 -12 0 -5 25 5 17 5 29 0 26 -5 -3 -11 -1 -15 5 -3 5 -1 10
5 10 6 0 8 5 5 10 -4 6 -11 7 -17 4 -7 -4 -8 -2 -4 4 4 7 3 12 -2 12 -5 0 -8
24 -6 53 3 48 1 49 -12 8 -2 -8 -7 -12 -10 -9 -2 3 0 17 5 31 6 14 6 27 2 29
-5 2 -11 14 -15 28 l-7 25 17 -25 c22 -32 184 -191 224 -220 l30 -21 0 2690 0
2691 -2900 0 -2900 0 0 -2900z m4425 2767 c17 -20 43 -58 57 -84 29 -52 101
-290 93 -303 -3 -5 0 -10 5 -12 13 -4 27 -60 35 -133 3 -27 11 -88 17 -135 7
-50 13 -200 13 -365 0 -239 -3 -291 -18 -355 -26 -106 -36 -162 -41 -250 -5
-80 -31 -211 -48 -244 -10 -18 -11 -18 -24 5 -7 13 -14 35 -14 49 0 20 -2 22
-10 10 -7 -11 -10 -11 -10 -2 0 7 -27 48 -60 90 -33 43 -60 81 -60 85 0 5 -11
18 -25 30 l-25 22 20 65 c23 74 24 84 10 75 -7 -4 -9 5 -5 25 4 20 2 29 -5 25
-5 -3 -10 -15 -10 -26 0 -10 -4 -19 -10 -19 -5 0 -10 9 -10 21 0 11 -4 18 -9
15 -5 -3 -7 -19 -5 -36 2 -16 0 -30 -5 -30 -18 0 -32 29 -38 77 -6 56 -10 63
-24 43 -5 -8 -7 -36 -4 -62 3 -27 2 -48 -2 -48 -16 0 -37 19 -39 36 -2 9 -10
24 -20 33 -9 9 -14 10 -10 4 8 -14 17 -53 12 -53 -2 0 -11 10 -22 22 -12 14
-14 18 -4 13 8 -4 13 -6 10 -2 -3 3 -9 6 -15 8 -5 1 -41 31 -80 67 -38 36 -94
83 -122 105 -29 21 -50 44 -46 50 3 6 1 7 -6 3 -41 -26 -309 288 -403 473 -46
89 -139 195 -198 226 -17 9 -30 19 -27 22 16 15 267 -144 267 -169 0 -5 6 -8
13 -8 6 0 23 -9 37 -20 14 -11 34 -20 45 -20 11 0 33 -9 49 -19 29 -19 30 -19
66 -1 20 10 43 26 51 36 8 9 39 35 69 58 30 22 61 46 68 53 7 7 21 18 30 25
45 33 200 285 259 421 56 129 78 151 147 144 42 -4 55 -10 81 -40z m-762
-1051 c65 -86 143 -156 221 -198 63 -33 106 -68 194 -155 63 -62 111 -116 108
-121 -3 -5 5 -14 19 -20 34 -15 155 -161 206 -248 24 -40 45 -71 47 -69 2 2
-1 13 -8 24 -6 12 -9 21 -6 21 6 0 72 -117 82 -145 l7 -20 -17 20 c-27 31 182
-374 327 -635 306 -551 407 -826 407 -1107 0 -204 -42 -363 -130 -493 -22 -32
-40 -65 -40 -74 0 -9 -7 -12 -20 -9 -14 4 -20 0 -20 -10 0 -9 -12 -29 -26 -44
-16 -18 -24 -22 -20 -10 7 24 -1 21 -15 -4 -8 -15 -8 -19 0 -15 30 19 4 -17
-62 -84 -82 -85 -163 -145 -289 -215 -49 -27 -88 -54 -88 -61 0 -11 -109 -64
-132 -64 -5 0 -24 -6 -41 -14 -18 -8 -54 -22 -82 -30 -27 -8 -117 -38 -200
-67 -82 -28 -195 -67 -250 -85 -55 -19 -109 -38 -120 -43 -11 -6 -54 -26 -96
-45 -42 -19 -105 -52 -140 -73 -73 -45 -166 -93 -180 -93 -25 0 -1 22 84 78
176 116 316 181 687 317 187 69 355 144 509 228 63 34 122 61 132 59 11 -2 20
7 27 28 12 32 40 50 51 32 14 -23 141 58 141 90 0 9 -3 9 -12 0 -20 -20 -32
-13 -13 8 10 11 15 23 12 27 -4 3 -2 13 5 20 7 8 13 22 14 31 9 60 11 73 17
78 3 3 4 -10 1 -30 -2 -20 -2 -36 1 -36 8 0 52 94 60 127 3 18 11 33 16 33 6
0 8 -3 6 -8 -3 -4 -7 -30 -10 -57 -3 -28 -11 -64 -16 -80 -10 -26 -9 -28 3
-12 26 33 60 160 61 224 0 35 4 63 10 63 6 0 4 4 -4 9 -9 6 -11 14 -4 26 34
61 -121 468 -245 642 -222 312 -447 527 -728 696 -104 62 -274 137 -404 178
-68 21 -130 39 -137 39 -7 0 -17 9 -23 20 -7 14 -7 20 0 20 5 0 10 7 10 15 0
8 -6 14 -12 12 -14 -2 -15 17 -2 47 5 12 4 17 -3 13 -5 -3 -10 1 -10 9 0 9 6
13 16 9 11 -3 10 0 -3 10 -11 8 -17 18 -13 21 4 4 2 13 -4 21 -6 7 -8 13 -3
13 5 0 15 4 23 9 12 8 12 12 -3 26 -14 14 -14 20 -4 33 11 13 10 15 -4 9 -10
-3 -18 -2 -18 3 0 6 7 10 16 10 13 0 14 3 4 15 -7 8 -16 12 -21 9 -5 -3 -9 0
-9 6 0 7 6 10 13 7 6 -2 21 -1 32 4 17 6 17 8 3 8 -10 1 -18 6 -18 12 0 5 3 8
8 5 4 -2 8 9 9 26 0 17 -2 25 -6 19 -5 -8 -13 -7 -27 4 -10 8 -14 15 -9 14 6
-1 19 -1 29 0 18 1 18 2 1 21 -10 11 -21 18 -25 15 -4 -2 -7 2 -7 10 0 8 4 12
8 10 3 -3 12 2 19 10 10 12 10 15 -1 16 -8 0 -3 5 11 10 19 8 22 12 10 19 -8
5 -19 6 -25 4 -5 -3 -3 0 5 8 9 7 14 22 12 32 -3 13 -6 15 -11 7 -5 -7 -8 1
-9 18 -1 31 15 40 34 21 7 -7 11 -6 11 4 0 8 -3 15 -6 14 -19 -2 -44 4 -34 8
7 3 9 12 6 21 -5 12 -3 14 7 8 9 -5 11 -4 6 4 -6 9 -11 9 -21 1 -9 -7 -15 -7
-19 -1 -4 5 0 13 7 18 22 12 31 52 14 59 -17 6 -10 53 9 61 15 5 9 23 -7 23
-6 0 -7 -4 -4 -10 3 -5 0 -7 -9 -4 -8 3 -12 12 -10 19 3 8 12 11 20 8 8 -3 14
0 14 6 0 6 -4 11 -9 11 -5 0 -11 16 -13 35 -3 23 -1 32 6 25 6 -6 15 -10 21
-10 6 0 7 3 0 8 -16 12 -34 49 -27 56 3 4 14 -3 24 -16 10 -13 18 -18 18 -12
0 6 -7 17 -15 24 -8 7 -15 19 -15 26 0 8 -6 14 -12 15 -7 0 -3 4 10 9 12 5 22
15 22 22 0 9 -3 9 -11 -2 -9 -13 -10 -13 -6 0 2 8 12 14 21 14 24 -3 1 24 -26
28 -20 3 -20 3 1 27 23 26 27 36 11 26 -5 -3 -10 -1 -10 4 0 6 5 11 10 11 18
0 10 17 -15 30 -14 7 -23 15 -20 18 2 3 11 -1 20 -8 13 -11 15 -9 15 12 0 13
6 30 13 38 6 8 2 6 -10 -3 -15 -13 -23 -15 -28 -7 -4 7 -2 16 6 20 10 7 10 11
-1 24 -11 14 -10 16 6 9 19 -7 19 -6 0 21 -10 16 -13 25 -7 22 14 -9 14 9 1
35 -8 15 -7 19 5 19 17 0 19 9 6 29 -6 9 -4 22 4 35 14 21 15 25 15 48 0 10
24 -19 113 -136z m617 -459 c0 -5 -6 -5 -13 2 -8 6 -17 8 -20 4 -4 -3 -7 4 -7
17 0 22 1 23 20 5 11 -10 20 -22 20 -28z m149 -277 c11 -24 11 -24 -3 -6 -9
11 -16 24 -16 30 0 12 5 7 19 -24z m-1569 -578 c0 -5 66 -12 148 -15 378 -17
788 -126 1039 -276 84 -51 255 -172 325 -231 69 -58 202 -192 253 -255 22 -27
48 -59 58 -70 10 -11 28 -37 38 -58 13 -24 25 -37 34 -34 8 4 19 -11 30 -41
10 -26 32 -71 49 -101 36 -65 20 -61 -19 4 -59 102 -180 258 -290 373 -142
150 -321 282 -498 367 -100 48 -293 125 -314 125 -7 0 -13 4 -13 8 0 17 -279
84 -522 127 -54 9 -101 22 -105 28 -4 6 0 8 10 4 10 -3 17 -2 17 4 0 8 -63 10
-202 7 -187 -4 -217 -7 -381 -42 -98 -20 -224 -52 -280 -71 -252 -83 -461
-158 -505 -181 -127 -70 -158 -84 -182 -84 -14 0 -36 -7 -48 -16 -13 -9 -25
-14 -27 -12 -8 7 149 96 267 152 107 50 254 102 493 175 130 39 488 99 603
101 7 0 10 5 7 10 -3 6 -1 10 4 10 6 0 11 -4 11 -8z m-87 -89 c-16 -6 -17 -65
-1 -81 9 -9 9 -12 -1 -12 -14 0 -9 -22 22 -90 16 -35 21 -69 23 -152 l2 -108
-39 -57 c-34 -49 -39 -64 -35 -94 4 -27 1 -40 -10 -50 -18 -15 -81 -39 -104
-39 -41 -1 -42 -16 -7 -86 44 -89 146 -387 162 -477 4 -20 11 -39 15 -42 5 -3
6 -15 2 -27 -4 -16 -2 -19 8 -13 10 6 12 4 6 -10 -9 -24 34 -239 46 -227 13
13 48 189 48 242 0 26 5 51 12 58 7 7 13 29 15 50 3 49 68 299 95 365 11 29
23 62 27 75 6 22 8 21 40 -23 38 -53 113 -130 217 -222 69 -62 149 -101 181
-88 13 4 14 3 4 -9 -19 -22 -3 -38 29 -31 23 5 30 2 35 -15 5 -17 73 -57 80
-48 1 2 7 17 12 33 7 21 19 33 44 41 25 9 35 18 37 37 2 14 12 33 23 43 10 9
19 22 19 28 0 6 13 19 29 28 32 18 70 83 64 110 -4 16 57 116 80 130 9 6 9 8
0 8 -6 0 -15 -4 -18 -10 -3 -5 -11 -10 -17 -10 -7 0 -7 5 1 14 9 11 8 15 -5
20 -23 9 -14 74 20 148 24 51 29 56 49 49 12 -4 27 -18 33 -30 14 -28 29 -41
21 -18 -4 9 -2 17 3 17 17 0 39 -43 69 -134 16 -49 38 -98 49 -110 10 -11 36
-50 57 -86 34 -57 119 -167 151 -195 20 -18 110 -158 143 -223 17 -34 34 -82
38 -107 5 -41 4 -45 -16 -45 -12 0 -33 12 -46 26 -14 15 -25 21 -25 14 0 -7
-7 -10 -15 -6 -28 10 -76 -44 -82 -94 -7 -58 -18 -70 -62 -70 -66 0 -112 -20
-160 -68 -25 -26 -49 -46 -54 -44 -9 3 -57 -96 -57 -119 0 -26 -35 -64 -92
-100 -29 -18 -62 -40 -73 -50 -26 -22 -92 -55 -127 -63 -23 -5 -28 -3 -28 13
0 10 -6 21 -14 24 -29 11 -56 -7 -97 -66 -100 -145 -210 -256 -340 -344 -39
-26 -78 -58 -87 -71 -14 -22 -21 -24 -61 -18 -25 3 -56 8 -67 12 -14 4 -23 0
-27 -10 -5 -12 0 -16 21 -16 26 -1 66 -22 57 -32 -3 -2 -7 -21 -9 -41 -4 -29
-21 -52 -88 -119 -46 -46 -105 -110 -133 -142 -49 -57 -50 -58 -51 -30 -5 109
-8 131 -20 149 -9 13 -14 15 -14 5 0 -9 -11 -3 -30 15 -33 32 -38 45 -14 45 8
0 12 5 9 10 -4 6 -16 8 -27 4 -14 -4 -18 -2 -14 5 4 6 -13 30 -38 54 -25 24
-46 46 -46 50 0 11 58 8 65 -3 3 -6 13 -10 21 -10 8 0 13 4 9 10 -3 5 7 9 22
9 109 -1 153 2 153 11 0 24 -82 41 -95 20 -9 -15 -183 -12 -245 5 -30 8 -61
22 -68 32 -7 10 -15 17 -18 15 -12 -8 -166 112 -218 170 -32 34 -96 122 -143
193 -47 72 -101 153 -119 180 -18 28 -47 75 -63 105 -34 60 -43 47 -12 -16 26
-52 8 -56 -56 -14 l-48 32 40 -37 c37 -34 38 -35 9 -19 -46 25 -165 114 -226
169 -29 27 -73 61 -98 77 -44 28 -69 59 -70 87 0 8 -10 26 -22 39 -13 14 -17
22 -9 17 9 -5 12 -4 7 3 -4 7 -13 12 -19 12 -7 0 -20 9 -30 20 -22 26 -41 26
-34 0 3 -11 1 -20 -4 -20 -5 0 -9 6 -9 13 0 7 -7 4 -15 -7 -8 -11 -17 -17 -20
-14 -3 2 -6 47 -6 99 -2 117 6 136 114 287 105 147 154 228 224 369 64 130 79
213 49 271 -23 45 -21 94 7 119 41 38 159 91 362 163 44 16 111 41 150 55 139
52 423 113 530 113 28 0 44 -2 38 -5z m356 -9 c135 -9 286 -39 426 -84 71 -22
131 -42 132 -44 2 -2 -7 -16 -19 -31 -15 -20 -18 -30 -10 -33 18 -6 15 -43 -5
-57 -18 -14 -53 -8 -53 8 0 25 -127 -121 -215 -248 -32 -46 -175 -149 -223
-162 -38 -9 -213 -10 -234 0 -12 5 -18 19 -18 38 0 16 -7 43 -16 60 -18 35
-20 114 -7 275 8 90 14 117 31 139 17 21 22 41 22 85 0 31 3 60 7 63 4 4 27 5
52 2 25 -2 84 -7 130 -11z m475 -262 c8 -14 -19 -41 -34 -32 -11 7 -11 11 -1
24 15 17 27 20 35 8z m36 -36 c0 -2 -8 -10 -17 -17 -16 -13 -17 -12 -4 4 13
16 21 21 21 13z m-2100 -41 c0 -2 -24 -16 -52 -31 -60 -30 -54 -17 7 15 43 23
45 23 45 16z m-164 -89 c-60 -34 -315 -204 -396 -265 -41 -31 -117 -96 -169
-146 -52 -49 -89 -80 -83 -69 21 39 198 198 313 281 154 110 351 233 363 226
5 -4 -8 -16 -28 -27z m2219 -630 c18 -13 18 -15 2 -40 -17 -26 -67 -38 -67
-16 0 6 11 10 24 10 35 0 40 15 10 29 -14 6 -22 16 -19 21 9 14 28 12 50 -4z
m1285 -17 c0 -6 -4 -7 -10 -4 -5 3 -10 11 -10 16 0 6 5 7 10 4 6 -3 10 -11 10
-16z m14 -35 c3 -8 2 -12 -4 -9 -6 3 -10 10 -10 16 0 14 7 11 14 -7z m-3623
-287 c-10 -9 -11 -8 -5 6 3 10 9 15 12 12 3 -3 0 -11 -7 -18z m-3 -45 c2 -12
-1 -22 -6 -22 -15 0 -34 28 -27 40 10 17 30 6 33 -18z m3770 -130 l-1 -47 -4
43 c-2 23 -9 42 -14 42 -6 0 -7 5 -4 10 13 21 25 -3 23 -48z m-21 6 c-3 -8 -6
-5 -6 6 -1 11 2 17 5 13 3 -3 4 -12 1 -19z m-66 -110 l-11 -33 5 34 c3 18 6
52 7 75 l1 41 4 -42 c2 -22 -1 -56 -6 -75z m61 35 c-2 -37 -22 -74 -22 -39 0
9 -4 14 -10 11 -17 -11 -11 34 8 53 22 24 26 20 24 -25z m19 -16 c-8 -8 -11
-7 -11 4 0 20 13 34 18 19 3 -7 -1 -17 -7 -23z m-3446 -27 c3 -6 -1 -7 -9 -4
-18 7 -21 14 -7 14 6 0 13 -4 16 -10z m3240 -330 c-3 -5 -11 -10 -16 -10 -6 0
-7 5 -4 10 3 6 11 10 16 10 6 0 7 -4 4 -10z m702 -487 c-3 -10 -5 -4 -5 12 0
17 2 24 5 18 2 -7 2 -21 0 -30z m-2287 -7 c0 -2 -7 -7 -16 -10 -8 -3 -12 -2
-9 4 6 10 25 14 25 6z m-114 -33 c-10 -10 -19 5 -10 18 6 11 8 11 12 0 2 -7 1
-15 -2 -18z m2455 -200 c13 -16 12 -17 -3 -4 -17 13 -22 21 -14 21 2 0 10 -8
17 -17z m-2346 -133 c-2 -29 -22 -47 -36 -33 -8 8 -4 17 12 32 28 25 26 25 24
1z m2435 -18 c0 -12 -3 -12 -15 -2 -8 7 -15 13 -15 15 0 1 7 2 15 2 8 0 15 -7
15 -15z m-1999 -2 c36 -20 15 -80 -28 -80 -5 0 -17 16 -26 35 -15 32 -15 35 1
44 22 13 29 13 53 1z"/>
<path d="M4307 5399 c-15 -47 -64 -142 -138 -269 -59 -100 -68 -118 -62 -124
3 -3 0 -6 -8 -6 -13 0 -119 -160 -119 -180 0 -6 -4 -10 -10 -10 -5 0 -16 -10
-24 -22 -16 -26 -33 -81 -18 -59 6 8 18 11 29 7 17 -5 26 7 63 86 24 51 63
124 87 162 24 37 54 89 67 115 22 46 52 99 86 156 22 37 72 175 67 188 -1 5
-10 -15 -20 -44z"/>
<path d="M4400 5438 c0 -9 5 -20 10 -23 13 -8 13 5 0 25 -8 13 -10 13 -10 -2z"/>
<path d="M4535 5060 c12 -90 17 -115 22 -120 8 -8 -8 111 -18 134 -7 16 -8 13
-4 -14z"/>
<path d="M4601 4724 c0 -11 3 -14 6 -6 3 7 2 16 -1 19 -3 4 -6 -2 -5 -13z"/>
<path d="M4587 4522 c-7 -243 -40 -359 -122 -430 -20 -18 -32 -32 -26 -32 12
0 59 45 93 90 l27 35 -19 -70 c-10 -38 -25 -89 -33 -112 -9 -23 -12 -45 -7
-48 12 -8 47 92 79 228 26 107 29 137 30 312 0 107 -3 196 -8 199 -5 3 -11
-74 -14 -172z"/>
<path d="M4621 4644 c0 -11 3 -14 6 -6 3 7 2 16 -1 19 -3 4 -6 -2 -5 -13z"/>
<path d="M3827 4525 c-4 -8 -2 -15 3 -15 6 0 10 6 11 13 0 6 5 3 10 -8 8 -19
9 -19 6 -1 -3 24 -23 32 -30 11z"/>
<path d="M3565 4700 c-3 -6 1 -7 9 -4 18 7 21 14 7 14 -6 0 -13 -4 -16 -10z"/>
<path d="M3550 4648 c0 -4 4 -8 9 -8 6 0 12 4 15 8 3 5 -1 9 -9 9 -8 0 -15 -4
-15 -9z"/>
<path d="M3536 4618 c3 -4 9 -8 15 -8 5 0 9 4 9 8 0 5 -7 9 -15 9 -8 0 -12 -4
-9 -9z"/>
<path d="M3556 4553 c-6 -14 -5 -15 5 -6 7 7 10 15 7 18 -3 3 -9 -2 -12 -12z"/>
<path d="M3560 4385 c-7 -9 -11 -17 -8 -20 2 -2 12 4 21 15 9 11 13 20 8 20
-5 0 -14 -7 -21 -15z"/>
<path d="M3530 3860 c0 -5 5 -10 10 -10 6 0 10 5 10 10 0 6 -4 10 -10 10 -5 0
-10 -4 -10 -10z"/>
<path d="M3530 3718 c0 -9 5 -20 11 -23 17 -11 20 0 4 21 -13 17 -14 17 -15 2z"/>
<path d="M3551 3514 c0 -11 3 -14 6 -6 3 7 2 16 -1 19 -3 4 -6 -2 -5 -13z"/>
<path d="M3600 3274 c0 -8 5 -12 10 -9 6 3 10 10 10 16 0 5 -4 9 -10 9 -5 0
-10 -7 -10 -16z"/>
<path d="M3280 3240 c14 -4 34 -8 45 -8 16 0 15 2 -5 8 -14 4 -34 8 -45 8 -16
0 -15 -2 5 -8z"/>
<path d="M2178 2921 c-32 -32 -26 -49 9 -26 13 9 23 11 23 5 0 -5 14 -10 31
-10 27 0 30 3 23 23 -14 45 -47 48 -86 8z"/>
<path d="M1793 2734 c-8 -4 -8 -12 3 -32 17 -33 18 -54 2 -70 -22 -22 6 -12
50 17 24 16 43 32 41 37 -3 13 -61 54 -73 53 -6 0 -16 -3 -23 -5z"/>
<path d="M1964 2625 c-50 -77 -13 -202 73 -245 36 -19 68 -26 129 -28 73 -4
83 -2 108 20 35 30 50 91 31 128 -15 30 -53 50 -93 50 -15 0 -43 10 -62 21
-69 43 -141 79 -155 79 -8 0 -22 -11 -31 -25z"/>
<path d="M1830 2610 c0 -24 34 -90 46 -90 18 0 18 22 0 65 -14 32 -46 49 -46
25z"/>
<path d="M3993 2568 c-6 -7 -13 -22 -16 -33 -6 -17 -4 -17 13 4 11 13 20 27
20 32 0 12 -6 11 -17 -3z"/>
<path d="M1876 2483 c4 -15 13 -38 21 -52 13 -25 14 -25 8 14 -9 55 -13 65
-25 65 -6 0 -8 -10 -4 -27z"/>
<path d="M3904 2358 l-19 -23 23 19 c21 18 27 26 19 26 -2 0 -12 -10 -23 -22z"/>
<path d="M1950 1598 c0 -8 -11 -32 -25 -52 -28 -41 -33 -76 -10 -76 8 0 14 3
13 8 -1 4 6 33 16 66 9 32 15 61 12 64 -3 3 -6 -2 -6 -10z"/>
<path d="M1779 1457 c13 -16 111 -81 111 -73 0 4 -82 64 -110 81 -13 8 -13 6
-1 -8z"/>
<path d="M2730 1446 c-70 -15 -123 -43 -180 -94 -44 -39 -44 -40 -48 -115 -3
-58 1 -93 18 -149 17 -57 24 -69 31 -55 15 25 32 21 80 -18 67 -57 65 -56 209
-71 68 -7 178 17 236 51 54 32 129 116 144 161 18 54 9 154 -17 190 -64 90
-297 139 -473 100z m336 -103 c4 -13 3 -27 0 -31 -4 -3 -9 4 -13 16 -4 17 -11
21 -24 17 -21 -7 -25 5 -8 22 16 16 38 5 45 -24z"/>
<path d="M2866 909 c-13 -62 -15 -108 -6 -114 5 -3 13 -20 17 -36 14 -54 23
-36 27 53 3 75 1 90 -15 104 -17 15 -18 15 -23 -7z"/>
<path d="M2758 899 c-20 -11 -24 -34 -7 -45 15 -9 31 10 27 34 -2 17 -7 19
-20 11z"/>
<path d="M2490 780 c0 -24 15 -27 24 -4 9 22 8 24 -9 24 -8 0 -15 -9 -15 -20z"/>
<path d="M2950 687 c14 -8 27 -12 30 -10 7 6 -23 23 -40 23 -8 0 -4 -6 10 -13z"/>
<path d="M2810 650 c0 -5 10 -10 23 -10 18 0 19 2 7 10 -19 13 -30 13 -30 0z"/>
<path d="M1380 1063 c0 -11 43 -33 64 -33 7 0 35 -11 61 -25 26 -14 53 -24 59
-22 6 3 18 -1 26 -8 8 -7 60 -28 115 -48 55 -19 113 -40 128 -46 21 -8 26 -8
21 1 -5 8 0 9 17 5 23 -6 23 -5 5 8 -23 17 -40 20 -31 5 3 -5 1 -10 -5 -10
-21 0 -50 21 -50 35 0 9 -15 17 -40 21 -22 4 -43 11 -46 15 -3 5 -10 9 -15 9
-6 0 -8 -4 -5 -9 4 -5 -3 -7 -14 -4 -11 3 -20 12 -20 19 0 8 -5 14 -11 14 -5
0 -7 -4 -4 -10 3 -5 2 -10 -4 -10 -5 0 -11 4 -13 10 -1 5 -48 25 -103 45 -132
48 -135 49 -135 38z"/>
<path d="M1940 861 c24 -20 40 -26 40 -16 0 2 -15 12 -32 20 l-33 16 25 -20z"/>
<path d="M5576 545 c4 -8 8 -15 10 -15 2 0 4 7 4 15 0 8 -4 15 -10 15 -5 0 -7
-7 -4 -15z"/>
<path d="M5610 530 c-9 -6 -10 -10 -3 -10 6 0 15 5 18 10 8 12 4 12 -15 0z"/>
<path d="M5640 405 c0 -8 4 -15 10 -15 5 0 7 7 4 15 -4 8 -8 15 -10 15 -2 0
-4 -7 -4 -15z"/>
<path d="M5660 350 c20 -13 33 -13 25 0 -3 6 -14 10 -23 10 -15 0 -15 -2 -2
-10z"/>
<path d="M5767 303 c-9 -15 1 -66 16 -80 12 -12 14 -7 16 36 1 39 -2 51 -13
51 -8 0 -17 -3 -19 -7z"/>
</g>
</svg>
